<svg xmlns="http://www.w3.org/2000/svg" viewBox="0 0 200 140">
  <defs>
    <filter id="gl" x="-20%" y="-20%" width="140%" height="140%">
      <feGaussianBlur stdDeviation="1.5" result="b"/><feMerge><feMergeNode in="b"/><feMergeNode in="SourceGraphic"/></feMerge>
    </filter>
  </defs>
  <g filter="url(#gl)">
    <!-- Shanghai - snail turns 1-6, long back straight, hairpin -->
    <path d="M 100 125 L 60 125 C 38 125 22 115 22 98 C 22 82 32 72 45 68 C 55 65 60 58 55 48 C 50 38 42 35 35 30 C 30 26 30 18 42 15 L 80 15 C 95 15 100 20 100 30 C 100 40 95 48 100 55 L 168 55 C 178 55 185 62 185 72 L 185 88 C 185 100 175 108 165 112 L 140 120 C 125 125 112 125 100 125 Z" fill="none" stroke="#E10600" stroke-width="2.8" stroke-linejoin="round" stroke-linecap="round"/>
    <line x1="100" y1="122" x2="100" y2="128" stroke="#fff" stroke-width="2" stroke-linecap="round"/>
    <polygon points="130,122 125,118 130,117" fill="#fff" opacity=".5"/>
  </g>
</svg>
