<svg xmlns="http://www.w3.org/2000/svg" viewBox="0 0 200 140">
  <defs>
    <filter id="gl" x="-20%" y="-20%" width="140%" height="140%">
      <feGaussianBlur stdDeviation="1.5" result="b"/><feMerge><feMergeNode in="b"/><feMergeNode in="SourceGraphic"/></feMerge>
    </filter>
  </defs>
  <g filter="url(#gl)">
    <!-- Suzuka - figure-8, S-curves, 130R, Spoon -->
    <!-- Top loop (S-curves, hairpin, Dunlop) -->
    <path d="M 100 95 L 60 95 C 38 95 22 85 22 70 C 22 55 30 45 42 38 C 52 32 58 26 65 20 C 72 14 82 12 95 12 C 108 12 118 16 128 22 C 135 27 140 34 145 42" fill="none" stroke="#E10600" stroke-width="2.8" stroke-linejoin="round" stroke-linecap="round"/>
    <!-- Crossover section + bottom loop (Degner, back straight, Spoon, 130R, chicane) -->
    <path d="M 145 42 C 150 52 148 62 140 70 C 132 78 122 82 115 90 C 110 96 112 100 120 105 C 130 110 142 112 155 108 C 165 104 175 95 180 82 C 184 70 182 58 175 48 C 168 38 158 34 145 42" fill="none" stroke="#E10600" stroke-width="2.8" stroke-linejoin="round" stroke-linecap="round"/>
    <!-- Chicane to start -->
    <path d="M 120 105 C 115 110 108 118 100 120 L 100 95" fill="none" stroke="#E10600" stroke-width="2.8" stroke-linejoin="round" stroke-linecap="round"/>
    <line x1="100" y1="92" x2="100" y2="98" stroke="#fff" stroke-width="2" stroke-linecap="round"/>
    <polygon points="75,92 70,88 75,87" fill="#fff" opacity=".5"/>
  </g>
</svg>
