<svg xmlns="http://www.w3.org/2000/svg" viewBox="0 0 200 140">
  <defs>
    <filter id="gl" x="-20%" y="-20%" width="140%" height="140%">
      <feGaussianBlur stdDeviation="1.5" result="b"/><feMerge><feMergeNode in="b"/><feMergeNode in="SourceGraphic"/></feMerge>
    </filter>
  </defs>
  <g filter="url(#gl)">
    <!-- Hermanos Rodríguez - stadium section, Peraltada, esses -->
    <path d="M 80 118 L 30 118 C 18 118 12 110 12 98 L 12 55 C 12 42 18 32 30 25 L 55 15 C 68 10 82 10 95 15 L 120 28 C 130 34 138 42 142 55 L 148 78 C 150 90 158 95 170 92 C 180 88 186 78 185 65 C 184 52 178 42 168 38 L 168 65 C 168 75 160 82 150 82 L 135 82 C 125 82 118 88 118 98 L 118 118 C 118 122 108 124 95 122 L 80 118 Z" fill="none" stroke="#E10600" stroke-width="2.8" stroke-linejoin="round" stroke-linecap="round"/>
    <line x1="80" y1="115" x2="80" y2="121" stroke="#fff" stroke-width="2" stroke-linecap="round"/>
    <polygon points="50,115 45,111 50,110" fill="#fff" opacity=".5"/>
  </g>
</svg>
