<svg xmlns="http://www.w3.org/2000/svg" viewBox="0 0 2000 1200">
  <rect width="2000" height="1200" fill="#000"/>
  <defs>
    <linearGradient id="g" x1="0" y1="0" x2="1" y2="1">
      <stop offset="0" stop-color="#FF5A00"/><stop offset="0.5" stop-color="#FF8A00"/><stop offset="1" stop-color="#FFD24D"/>
    </linearGradient>
    <filter id="glow" x="-20%" y="-20%" width="140%" height="140%"><feGaussianBlur stdDeviation="6" result="b"/><feMerge><feMergeNode in="b"/><feMergeNode in="SourceGraphic"/></feMerge></filter>
  </defs>
  <g opacity="0.35" stroke="url(#g)" stroke-width="8" fill="none" filter="url(#glow)">
    <path d="M-200,300 C300,200 700,220 1300,140 1600,100 1900,80 2200,40"/>
    <path d="M-200,420 C300,320 760,340 1320,260 1650,220 1950,200 2200,160"/>
    <path d="M-200,540 C320,440 840,460 1360,380 1680,340 1960,320 2200,300"/>
    <path d="M-200,660 C340,560 900,580 1400,520 1700,490 1980,480 2200,470"/>
  </g>
  <g stroke="url(#g)" stroke-width="14" fill="none" filter="url(#glow)">
    <path d="M200,1000 C560,860 720,820 980,760 1240,700 1420,640 1700,600" />
    <path d="M420,980 C700,920 900,880 1160,820 1420,760 1620,720 1860,680" />
    <path d="M780,880 C860,820 980,760 1100,740 1280,720 1420,760 1600,800" />
    <path d="M600,940 C640,860 760,820 840,800 980,760 1120,760 1300,780" />
    <path d="M930,820 a80,80 0 1 1 160,0" />
    <path d="M1450,720 a90,90 0 1 1 180,0" />
  </g>
</svg>