<svg xmlns="http://www.w3.org/2000/svg" viewBox="0 0 200 260">
  <defs>
    <radialGradient id="ms" cx="50%" cy="38%" r="50%"><stop offset="0%" stop-color="#FFE0C0"/><stop offset="100%" stop-color="#D8A878"/></radialGradient>
    <linearGradient id="mh" x1="0%" y1="0%" x2="100%" y2="100%"><stop offset="0%" stop-color="#0067B1"/><stop offset="40%" stop-color="#FF8000"/><stop offset="100%" stop-color="#0067B1"/></linearGradient>
  </defs>
  <rect width="200" height="260" rx="22" fill="#081008"/>
  <!-- TINY stocky body -->
  <path d="M72 210 Q60 196 72 188 L128 188 Q140 196 128 210 L136 242 Q100 254 64 242Z" fill="#0067B1"/>
  <rect x="82" y="194" width="36" height="14" rx="3" fill="#FF8000" opacity=".7"/>
  <text x="100" y="205" font-family="system-ui" font-size="12" font-weight="900" fill="white" text-anchor="middle">14</text>
  <ellipse cx="60" cy="200" rx="14" ry="9" fill="#0067B1"/>
  <ellipse cx="140" cy="200" rx="14" ry="9" fill="#FF8000"/>
  <!-- Thick neck -->
  <rect x="84" y="178" width="32" height="12" rx="5" fill="url(#ms)"/>
  <!-- HUGE HELMET (Alonso colors) -->
  <ellipse cx="100" cy="84" rx="78" ry="76" fill="url(#mh)"/>
  <ellipse cx="100" cy="52" rx="68" ry="40" fill="url(#mh)"/>
  <ellipse cx="76" cy="42" rx="24" ry="10" fill="white" opacity=".1"/>
  <!-- 14 on helmet -->
  <text x="100" y="46" font-family="system-ui" font-size="18" font-weight="900" fill="white" text-anchor="middle" opacity=".4">14</text>
  <!-- Asturias flag on helmet -->
  <rect x="40" y="40" width="18" height="12" rx="2" fill="#0067B1" opacity=".6"/>
  <path d="M44 44 L49 38 L54 44 M42 42 L56 42" stroke="#FCDD09" stroke-width="1" fill="none" opacity=".5"/>
  <!-- Visor -->
  <path d="M32 74 Q32 62 100 58 Q168 62 168 74 L168 126 Q168 156 100 162 Q32 156 32 126Z" fill="#0a1520"/>
  <!-- Face (wide, strong) -->
  <ellipse cx="100" cy="116" rx="56" ry="42" fill="url(#ms)"/>
  <!-- Full dark hair from helmet -->
  <path d="M36 80 Q34 72 38 66" stroke="#1a0f05" stroke-width="4" fill="none" opacity=".7"/>
  <path d="M34 90 Q32 82 35 76" stroke="#2D1B0E" stroke-width="3" fill="none" opacity=".5"/>
  <path d="M164 80 Q166 72 162 66" stroke="#1a0f05" stroke-width="4" fill="none" opacity=".7"/>
  <path d="M166 90 Q168 82 165 76" stroke="#2D1B0E" stroke-width="3" fill="none" opacity=".5"/>
  <!-- BLUE glasses (signature feature!) -->
  <rect x="46" y="96" width="40" height="30" rx="8" fill="rgba(60,130,255,.1)" stroke="#2563EB" stroke-width="3.5"/>
  <rect x="114" y="96" width="40" height="30" rx="8" fill="rgba(60,130,255,.1)" stroke="#2563EB" stroke-width="3.5"/>
  <path d="M86 110 L114 110" stroke="#2563EB" stroke-width="3.2"/>
  <path d="M44 108 L32 104" stroke="#2563EB" stroke-width="2.5"/>
  <path d="M156 108 L168 104" stroke="#2563EB" stroke-width="2.5"/>
  <!-- Eyes behind blue glasses -->
  <ellipse cx="66" cy="111" rx="10" ry="10" fill="white"/>
  <ellipse cx="134" cy="111" rx="10" ry="10" fill="white"/>
  <ellipse cx="68" cy="112" rx="6" ry="7" fill="#3D5A1E"/>
  <ellipse cx="136" cy="112" rx="6" ry="7" fill="#3D5A1E"/>
  <circle cx="71" cy="109" r="3" fill="white"/>
  <circle cx="139" cy="109" r="3" fill="white"/>
  <!-- Strong dark eyebrows -->
  <path d="M48 90 Q66 78 84 90" stroke="#1a0f05" stroke-width="4" fill="none" stroke-linecap="round"/>
  <path d="M116 90 Q134 78 152 90" stroke="#1a0f05" stroke-width="4" fill="none" stroke-linecap="round"/>
  <!-- Nose -->
  <path d="M95 120 Q100 136 105 120" stroke="#B88050" stroke-width="2" fill="none"/>
  <ellipse cx="100" cy="133" rx="6.5" ry="3.5" fill="#C49060" opacity=".5"/>
  <!-- BEARD (al 5, shorter than Toni) -->
  <path d="M52 128 Q48 146 62 156 Q80 166 100 168 Q120 166 138 156 Q152 146 148 128" fill="#2D1B0E" opacity=".35"/>
  <path d="M56 130 Q52 144 64 154 Q82 164 100 166 Q118 164 136 154 Q148 144 144 130" fill="#1a0f05" opacity=".2"/>
  <!-- Beard stubble texture -->
  <circle cx="72" cy="144" r=".8" fill="#1a0f05" opacity=".25"/>
  <circle cx="86" cy="150" r=".8" fill="#1a0f05" opacity=".25"/>
  <circle cx="100" cy="154" r=".8" fill="#1a0f05" opacity=".25"/>
  <circle cx="114" cy="150" r=".8" fill="#1a0f05" opacity=".25"/>
  <circle cx="128" cy="144" r=".8" fill="#1a0f05" opacity=".25"/>
  <!-- Smile in beard -->
  <path d="M78 142 Q100 155 122 142" stroke="#8B5E3C" stroke-width="2.5" fill="none" stroke-linecap="round"/>
  <!-- Cheeks -->
  <circle cx="50" cy="128" r="9" fill="#E88080" opacity=".12"/>
  <circle cx="150" cy="128" r="9" fill="#E88080" opacity=".12"/>
  <!-- Sidra glass -->
  <path d="M52 228 L50 242 L60 242 L58 228Z" fill="#A0C850" opacity=".35" stroke="#6B8E23" stroke-width="1"/>
  <path d="M47 232 Q55 226 63 232" stroke="#A0C850" stroke-width="1" fill="none" opacity=".4"/>
  <text x="100" y="256" font-family="system-ui,sans-serif" font-size="14" font-weight="700" fill="#FF8000" text-anchor="middle" opacity=".9">Manrique</text>
</svg>
